<svg width="62.000000" height="17.000000" viewBox="0 0 62 17" fill="none" xmlns="http://www.w3.org/2000/svg" xmlns:xlink="http://www.w3.org/1999/xlink">
	<desc>
			Created with Pixso.
	</desc>
	<defs/>
	<path id="Read More..." d="M19.99 12.66Q20.57 13.1 21.48 13.1Q22.02 13.1 22.4 12.94Q22.78 12.79 23.04 12.52Q23.27 12.27 23.41 11.98Q23.43 11.96 23.44 11.93L23.47 11.93L23.54 13L23.98 13L23.98 4.64L23.44 4.64L23.44 7.01Q23.44 7.29 23.45 7.61Q23.46 7.94 23.48 8.23L23.44 8.23Q23.38 8.07 23.29 7.93Q23.18 7.77 23.05 7.62Q22.79 7.36 22.42 7.2Q22.04 7.04 21.54 7.04Q20.73 7.04 20.17 7.41Q19.91 7.59 19.7 7.84Q19.04 8.63 19.04 10.15Q19.04 11.59 19.66 12.35Q19.81 12.53 19.99 12.66ZM4.57 5.35Q3.94 5.14 3.01 5.14L1.1 5.14L1.1 13L1.65 13L1.65 9.58L3.6 9.58L5.63 13L6.28 13L4.13 9.42Q4.63 9.28 5.01 9Q5.17 8.89 5.3 8.75Q5.48 8.56 5.61 8.3Q5.83 7.88 5.83 7.28Q5.83 6.49 5.51 6.02Q5.46 5.95 5.41 5.88Q5.1 5.52 4.57 5.35ZM29.43 5.74L32.31 13L32.75 13L35.65 5.75L35.68 5.75Q35.67 5.96 35.66 6.18Q35.65 6.39 35.65 6.61Q35.64 6.83 35.64 7.04L35.64 13L36.19 13L36.19 5.14L35.37 5.14L32.57 12.14L32.53 12.14L29.75 5.14L28.91 5.14L28.91 13L29.44 13L29.44 7.11Q29.44 6.85 29.43 6.61Q29.43 6.38 29.42 6.16Q29.41 5.94 29.4 5.74L29.43 5.74ZM1.65 5.63L2.95 5.63Q4.12 5.63 4.69 5.99Q4.78 6.05 4.86 6.13Q5.26 6.51 5.26 7.3Q5.26 7.97 4.94 8.39Q4.84 8.52 4.72 8.63Q4.18 9.09 3.22 9.09L1.65 9.09L1.65 5.63ZM10.95 7.39Q10.46 7.04 9.71 7.04Q8.94 7.04 8.4 7.39Q8.36 7.42 8.32 7.45Q8.19 7.54 8.07 7.65Q7.68 8.01 7.46 8.55Q7.17 9.25 7.17 10.13Q7.17 11.02 7.47 11.7Q7.66 12.12 7.97 12.43Q8.15 12.6 8.37 12.73Q8.97 13.1 9.86 13.1Q10.41 13.1 10.84 13.01Q11.27 12.93 11.7 12.73L11.7 12.23Q11.22 12.45 10.82 12.54Q10.41 12.62 9.87 12.62Q9.07 12.62 8.56 12.24Q8.41 12.13 8.28 11.98Q7.72 11.34 7.72 10.13L11.94 10.13L11.94 9.74Q11.94 8.96 11.7 8.35Q11.52 7.91 11.21 7.6Q11.09 7.49 10.95 7.39ZM42.95 11.3Q43.11 10.74 43.11 10.07Q43.11 9.18 42.83 8.49Q42.62 8 42.26 7.66Q42.13 7.53 41.98 7.43Q41.41 7.04 40.56 7.04Q39.74 7.04 39.15 7.41Q39 7.5 38.86 7.62Q38.48 7.95 38.25 8.45Q37.94 9.13 37.94 10.07Q37.94 10.75 38.11 11.31Q38.28 11.86 38.61 12.26Q38.76 12.45 38.95 12.6Q39.16 12.77 39.42 12.88Q39.9 13.1 40.51 13.1Q41.15 13.1 41.64 12.88Q41.95 12.74 42.19 12.53Q42.33 12.41 42.45 12.26Q42.78 11.86 42.95 11.3ZM52.46 7.39Q51.96 7.04 51.21 7.04Q50.45 7.04 49.9 7.39Q49.86 7.42 49.82 7.45Q49.69 7.54 49.58 7.65Q49.19 8.01 48.96 8.55Q48.67 9.25 48.67 10.13Q48.67 11.02 48.97 11.7Q49.16 12.12 49.48 12.43Q49.66 12.6 49.87 12.73Q50.47 13.1 51.36 13.1Q51.92 13.1 52.35 13.01Q52.78 12.93 53.21 12.73L53.21 12.23Q52.72 12.45 52.32 12.54Q51.92 12.62 51.37 12.62Q50.58 12.62 50.06 12.24Q49.91 12.13 49.78 11.98Q49.23 11.34 49.23 10.13L53.44 10.13L53.44 9.74Q53.44 8.96 53.2 8.35Q53.02 7.91 52.71 7.6Q52.59 7.49 52.46 7.39ZM17.02 7.53Q16.54 7.05 15.58 7.05Q15.06 7.05 14.57 7.18Q14.09 7.31 13.68 7.51L13.85 7.96Q14.28 7.75 14.69 7.63Q15.11 7.52 15.56 7.52Q16.19 7.52 16.54 7.83Q16.57 7.86 16.61 7.9Q16.96 8.28 16.96 9.18L16.96 9.6L15.88 9.65Q14.53 9.71 13.81 10.17Q13.47 10.38 13.29 10.69Q13.09 11.04 13.09 11.49Q13.09 12.01 13.31 12.37Q13.38 12.49 13.48 12.6Q13.67 12.79 13.92 12.91Q14.33 13.1 14.89 13.1Q15.45 13.1 15.84 12.96Q16.23 12.81 16.5 12.56Q16.57 12.49 16.63 12.42Q16.81 12.21 16.95 11.97L16.98 11.97L17.08 13L17.5 13L17.5 9.08Q17.5 8.02 17.02 7.54Q17.02 7.54 17.02 7.53ZM47.48 7.08Q47.28 7.05 47.05 7.05Q46.6 7.05 46.25 7.22Q45.97 7.35 45.75 7.55Q45.7 7.6 45.66 7.65Q45.53 7.79 45.43 7.95Q45.34 8.1 45.28 8.26L45.25 8.26L45.19 7.16L44.73 7.16L44.73 13L45.27 13L45.27 9.77Q45.27 9.27 45.39 8.86Q45.51 8.45 45.74 8.16Q45.87 7.99 46.04 7.86Q46.15 7.78 46.29 7.72Q46.61 7.56 47.02 7.56Q47.23 7.56 47.42 7.58Q47.53 7.6 47.65 7.63Q47.71 7.64 47.78 7.66L47.86 7.16Q47.68 7.11 47.48 7.08ZM8.75 7.75Q9.16 7.51 9.71 7.51Q10.28 7.51 10.64 7.78Q10.68 7.81 10.72 7.85Q11.03 8.11 11.19 8.54Q11.38 9.03 11.38 9.67L7.74 9.67Q7.83 8.62 8.35 8.07Q8.53 7.87 8.75 7.75ZM50.25 7.75Q50.66 7.51 51.21 7.51Q51.78 7.51 52.15 7.78Q52.19 7.81 52.23 7.85Q52.53 8.11 52.7 8.54Q52.88 9.03 52.88 9.67L49.24 9.67Q49.33 8.62 49.85 8.07Q50.03 7.87 50.25 7.75ZM22.81 12.22Q22.37 12.63 21.54 12.63Q20.78 12.63 20.32 12.26Q20.19 12.15 20.07 12Q19.59 11.37 19.59 10.16Q19.59 8.87 20.11 8.19Q20.28 7.97 20.5 7.82Q20.94 7.52 21.59 7.52Q22.31 7.52 22.74 7.87Q22.89 8 23.01 8.17Q23.45 8.83 23.45 10.07L23.45 10.15Q23.45 11.35 23.01 11.99Q22.92 12.12 22.81 12.22ZM38.72 11.41Q38.5 10.84 38.5 10.07Q38.5 8.88 39.02 8.2Q39.17 8 39.36 7.87Q39.83 7.52 40.56 7.52Q41.27 7.52 41.71 7.85Q41.8 7.92 41.88 8Q42.19 8.3 42.35 8.76Q42.56 9.33 42.56 10.07Q42.56 10.83 42.34 11.41Q42.17 11.87 41.84 12.17Q41.76 12.25 41.67 12.31Q41.22 12.63 40.52 12.63Q39.83 12.63 39.38 12.31Q39.3 12.25 39.23 12.18Q38.9 11.88 38.72 11.41ZM15.94 10.07L16.96 10.02L16.96 10.6Q16.95 11.46 16.53 11.99Q16.49 12.04 16.44 12.09Q16.37 12.17 16.3 12.23Q15.8 12.64 14.98 12.64Q14.36 12.64 14.01 12.35Q13.93 12.28 13.87 12.19Q13.66 11.92 13.66 11.5Q13.66 11.14 13.82 10.87Q13.97 10.63 14.24 10.47Q14.82 10.12 15.94 10.07ZM55.06 12.25Q54.96 12.38 54.96 12.61Q54.96 12.85 55.06 12.98Q55.09 13.01 55.11 13.03Q55.22 13.11 55.38 13.11Q55.59 13.11 55.7 13Q55.71 12.99 55.72 12.98Q55.83 12.85 55.83 12.61Q55.83 12.38 55.72 12.25Q55.71 12.24 55.7 12.23Q55.59 12.12 55.38 12.12Q55.21 12.12 55.11 12.21Q55.09 12.23 55.06 12.25ZM57.69 12.25Q57.58 12.38 57.58 12.61Q57.58 12.85 57.69 12.98Q57.71 13.01 57.74 13.03Q57.84 13.11 58 13.11Q58.21 13.11 58.32 13Q58.33 12.99 58.34 12.98Q58.45 12.85 58.45 12.61Q58.45 12.38 58.34 12.25Q58.33 12.24 58.32 12.23Q58.21 12.12 58 12.12Q57.83 12.12 57.73 12.21Q57.71 12.23 57.69 12.25ZM60.31 12.25Q60.2 12.38 60.2 12.61Q60.2 12.85 60.31 12.98Q60.33 13.01 60.36 13.03Q60.46 13.11 60.62 13.11Q60.83 13.11 60.94 13Q60.95 12.99 60.96 12.98Q61.07 12.85 61.07 12.61Q61.07 12.38 60.96 12.25Q60.95 12.24 60.94 12.23Q60.84 12.12 60.62 12.12Q60.45 12.12 60.35 12.21Q60.33 12.23 60.31 12.25Z" fill="#000000" fill-opacity="1.000000" fill-rule="evenodd"/>
</svg>
